<svg xmlns="http://www.w3.org/2000/svg" xmlns:xlink="http://www.w3.org/1999/xlink" version="1.1" x="0px" y="0px" width="94.936" height="158.182" viewBox="0 0 94.936 158.182" enable-background="new 0 0 94.936 158.182" xml:space="preserve" preserveAspectRatio="none" class="svg-1" data-inittext="1" style="width: 345.6px;height: 576px;"> <rect width="94.936" height="158.182" y="0" fill="#80B696" ></rect><path opacity="0.1" fill="#FFFFFF" d="M103.188,122.342l-0.008-0.002l-0.046-0.145l0.003-0.004l-0.004-0.004l-8.805-27.839  l8.821-7.97l-0.181-0.2l-10.104,9.129l-3.373-9.026l3.439-8.083l-0.123-0.052l0.131-0.031L89.5,63.896l3.379-2.126l-0.07-0.114  l0.13-0.032l-3.979-15.776h3.85v-0.269h-3.86l3.047-16.019l-0.132-0.025l0.135,0.006l0.944-19.789l-0.134-0.006l0.122-0.056  l-9.084-19.843l-0.122,0.056l-0.135-0.011L82.438,5.153l-7.566-15.31l-0.24,0.12l7.566,15.31l-12.108-7.87l1.337-7.476l-0.264-0.048  L69.84-2.733l-15.175-7.485l-0.06,0.121h-0.135V2.802l-12-12.99l-0.099,0.091l-0.131-0.032L38.577,4.783l-16.822-14.98l-0.089,0.101  l-0.135,0.009l1.055,17.152L12.36-2.729l3.479-7.31l-0.121-0.059l-0.032-0.13L-0.9-6.142l0.032,0.13l-0.095,0.096l5.04,5.061  l-4.884,9.091l0.119,0.064l-0.115,0.07l4.807,7.884h-4.611v0.269h4.468l-4.552,3.65l0.168,0.21l4.792-3.842l10.216,3.717  l-15.386,4.09l0.035,0.131l-0.086,0.104L16.13,38.655H4.479l-5.24-7.101l-0.216,0.159l5.122,6.941h-5.012v0.27h4.955l-5.05,5.06  l0.19,0.188l5.238-5.248h11.688L-0.958,54.247l0.09,0.099l0.015,0.134l15.37-1.665L-0.777,65.962l0.088,0.102l-0.112,0.074  l13.308,20.107l-13.179-1.647l-0.034,0.267l13.284,1.661L1.285,109.739l-1.76-23.007l-0.268,0.021l1.798,23.501l0.134-0.011  l-0.134,0.014l3.043,29.659l-4.458-7.701l-0.233,0.134l4.657,8.042h-4.879v0.27h4.81l-4.783,5.313l0.2,0.182l4.904-5.448  l4.361,18.483l0.133-0.031l0.083,0.103l30.126-24.371l-7.281,24.227l0.257,0.078l7.304-24.304l11.096,24.321l0.088-0.04v0.063h0.269  V159.2l0.05,0.039l20.985-26.633l0.604,26.632l0.27-0.006l-0.602-26.518l16.615,26.475l0.229-0.144l-16.398-26.129l30.42,26.285  l0.176-0.203l-9.129-7.888l9.211-28.747l0.008-0.002l-0.004-0.009L103.188,122.342z M94.11,94.546l8.66,27.387l-21.887-15.436  L94.11,94.546z M92.651,95.502L81.034,106l8.305-19.358L92.651,95.502z M80.802,105.857V86.319l8.343,0.093L80.802,105.857z   M89.258,86.144l-8.15-0.089l11.401-7.55L89.258,86.144z M80.787,85.945l-1.515-22.817l13.334,14.993L80.787,85.945z   M45.448,110.064l10.566-23.555l9.143,19.899L45.448,110.064z M65.098,106.695l-7.434,13.626l-12.136-9.997L65.098,106.695z   M16.704,38.834l13.017-7.032l11.806,13.17l-14.71,7.542l0.123,0.24l14.717-7.547l6.074,22.342l-12.083-2.435l-4.984-7.112  l-0.11,0.076L30.662,58L16.704,38.834z M30.191,57.81l-15.114-5.268L16.6,39.148L30.191,57.81z M15.091,20.57l14.411,11.043  l-12.88,6.961L15.091,20.57z M37.062,84.414l10.833-16.409l7.932,18.088l-0.688,0.173L37.062,84.414z M54.38,86.458l-30.539,7.722  l13.023-9.517L54.38,86.458z M48.187,68.002l16.943,8.164l-9.076,9.776L48.187,68.002z M78.977,36.537v25.911L67.043,51.839  L78.977,36.537z M66.879,51.613l-3.286-5.965l-8.717-15.901l24.005,6.477L66.879,51.613z M48.362,67.789l30.354-4.842L65.325,75.962  L48.362,67.789z M65.332,76.343l6.187,9.705H56.321L65.332,76.343z M65.802,76.582l14.415,9.467h-8.379L65.802,76.582z   M65.565,76.104l13.433-13.059l1.519,22.878L65.565,76.104z M79.135,35.75l-6.396-21.66l13.047,6.252L79.135,35.75z M79.247,36.467  l9.372,9.269l-9.372,16.501V36.467z M78.86,35.769L54.842,16.405l10.33-6.162l7.238,3.689L78.86,35.769z M78.529,35.848  l-23.788-6.417V16.669L78.529,35.848z M63.358,45.778l3.384,6.144l0.118-0.065l-0.09,0.102L78.069,62L54.741,48.745V30.06  L63.358,45.778z M78.713,62.673l-30.593,4.882l6.56-18.537L78.713,62.673z M54.471,47.924L48.88,29.668h5.591V47.924z M54.471,29.4  h-5.717L39.5,20.349l14.971-3.789V29.4z M48.402,29.432l-18.335,2.03l9.178-10.987L48.402,29.432z M48.603,29.681l5.862,19.139  l-6.53,18.453l-6.062-22.297l-0.129,0.036l0.1-0.089l-11.82-13.185L48.603,29.681z M35.64,65.387l11.806,2.379l-16.601,6.542  L35.64,65.387z M30.687,74.034V58.504l4.724,6.741L30.687,74.034z M30.658,74.67l16.913-6.665L36.727,84.431l-13.243,9.677  L30.658,74.67z M23.141,94.263l-10.13-7.839l17.273-11.516L23.141,94.263z M22.977,94.477l-10.062,7.205V86.69L22.977,94.477z   M23.009,94.784l-2.861,15.167l-7.167-7.985L23.009,94.784z M19.929,110.109H1.607l11.152-7.985L19.929,110.109z M20.087,110.378  l-0.77,11.258L1.651,110.378H20.087z M20.341,110.602l18.339,23.372L19.575,121.8L20.341,110.602z M20.507,110.378h24.242  l-16.284,10.143L20.507,110.378z M20.393,110.109l2.904-15.397l21.504,15.397H20.393z M23.518,94.539l31.643-8.001l0.111,0.011  l0.004-0.04l0.501-0.126l-10.613,23.656L23.518,94.539z M56.38,86.661l23.912,19.716H65.437L56.38,86.661z M56.388,86.318H71.69  l0.41,0.644l8.224,19.091L56.388,86.318z M72.116,86.318h8.418v19.54L72.116,86.318z M92.551,77.655L79.443,62.917l9.796,1.041  L92.551,77.655z M92.655,61.594l-3.34,2.102l-9.984-1.062l9.407-16.564L92.655,61.594z M88.702,45.44l-9.43-9.325l6.712-15.551  l5.738,8.998L88.702,45.44z M91.75,29.105l-5.629-8.826l6.53-10.042L91.75,29.105z M86.02,19.94L82.726,5.873l9.88,3.938  L86.02,19.94z M83.819-9.568l8.729,19.064l-9.87-3.933L83.819-9.568z M70.008-2.33l12.409,8.065l3.349,14.3l-13.181-6.316  l-7.249-3.695L70.008-2.33z M54.741-9.88l15.031,7.414l-4.67,12.35L54.741,3.073V-9.88z M54.508,3.237l0.098-0.092l-0.074,0.113  l10.383,6.826l-10.249,6.111L42.852-9.379L54.508,3.237z M42.412-9.692l11.86,25.677L38.807,4.976L42.412-9.692z M54.292,16.329  l-14.93,3.777L38.8,5.299L54.292,16.329z M39.098,20.231l-9.233,11.055L29.258,20.27l-0.134,0.008l0.12-0.06L22.945,7.504  l15.581-2.316L39.098,20.231z M21.821-9.779L38.35,4.941L22.868,7.243L21.821-9.779z M22.73,7.677l6.261,12.635l0.608,11.035  l-14.49-11.103L22.73,7.677z M22.385,7.242L8.025,6.378l4.213-8.852L22.385,7.242z M-0.606-5.938L15.16-9.822L4.252-1.06  L-0.606-5.938z M4.349-0.792l10.995-8.832L7.726,6.383l-8.16,1.725L4.349-0.792z M4.211,16.079l-4.687-7.688L7.61,6.683  L4.211,16.079z M4.415,16.308l3.497-9.666L22.512,7.52l-7.638,12.594L4.415,16.308z M-0.58,24.541l15.391-4.092l1.532,18.033  L-0.58,24.541z M-0.468,54.167l16.799-15.043l-1.521,13.388L-0.468,54.167z M14.96,52.788l14.798,5.157H16.505v0.134l-0.057-0.121  L0.134,65.533L14.96,52.788z M16.535,58.214h13.884v16.177L-0.298,66.03L16.535,58.214z M-0.38,66.288l30.611,8.332L12.818,86.23  L-0.38,66.288z M12.646,87v14.875l-11.104,7.951L12.646,87z M1.352,110.506l17.885,11.397L4.41,140.313L1.352,110.506z   M8.888,158.917l-4.318-18.302l34.216-5.885L8.888,158.917z M4.756,140.311l14.708-18.262l19.441,12.388L4.756,140.311z   M39.207,134.21l-10.575-13.477l16.378-10.201L39.207,134.21z M45.2,110.893l5.236,29.385l-11.009-5.837L45.2,110.893z   M50.481,158.757l-10.923-23.942l10.923,5.792V158.757z M50.75,158.869v-18.251l20.751-8.085L50.75,158.869z M50.72,140.341  l-5.303-29.761l26.232,21.606L50.72,140.341z M57.875,120.495l7.43-13.619l6.374,24.988L57.875,120.495z M71.93,131.757  l-6.406-25.112h14.957L71.93,131.757z M72.067,132.186l8.521-25.025l2.975,34.959L72.067,132.186z M93.748,150.919l-9.894-8.549  l-2.965-34.839l11.793,33.04l0.253-0.092l-11.997-33.615l21.963,15.491L93.748,150.919z" ></path></svg>

