<svg xmlns="http://www.w3.org/2000/svg" xmlns:xlink="http://www.w3.org/1999/xlink" version="1.1" x="0px" y="0px" class="svg-2" width="86.076" height="12.604" viewBox="0 0 86.076 12.604" enable-background="new 0 0 86.076 12.604" xml:space="preserve" preserveAspectRatio="none" data-inittext="1" style="width: 4rem;height: 0.55rem" > <g><path fill="#3E3A39" d="M26.191,0.503h2.951c0.492,0,0.869,0.122,1.133,0.366c0.264,0.242,0.395,0.545,0.395,0.904   c0,0.301-0.094,0.561-0.281,0.776c-0.125,0.144-0.309,0.257-0.551,0.341c0.367,0.088,0.637,0.24,0.811,0.454   c0.172,0.216,0.258,0.484,0.258,0.81c0,0.264-0.061,0.502-0.184,0.713s-0.291,0.379-0.504,0.501   c-0.133,0.077-0.332,0.132-0.6,0.167c-0.355,0.047-0.59,0.07-0.705,0.07h-2.723V0.503z M27.781,2.504h0.686   c0.246,0,0.418-0.042,0.514-0.127c0.098-0.084,0.145-0.207,0.145-0.367c0-0.148-0.047-0.265-0.145-0.348   c-0.096-0.084-0.264-0.125-0.502-0.125h-0.697V2.504z M27.781,4.509h0.805c0.271,0,0.463-0.048,0.574-0.146   c0.111-0.096,0.166-0.225,0.166-0.387c0-0.15-0.055-0.272-0.164-0.363c-0.109-0.092-0.303-0.138-0.58-0.138h-0.801V4.509z" class=" kxf_3E3A39"></path> <path fill="#3E3A39" d="M34.867,0.503h1.572v3.04c0,0.302-0.047,0.586-0.141,0.854s-0.24,0.502-0.441,0.703   c-0.201,0.2-0.412,0.341-0.631,0.422c-0.309,0.113-0.676,0.17-1.104,0.17c-0.248,0-0.52-0.018-0.813-0.052   c-0.295-0.034-0.539-0.104-0.736-0.206c-0.197-0.104-0.377-0.251-0.541-0.44c-0.164-0.19-0.275-0.386-0.336-0.588   C31.6,4.08,31.551,3.793,31.551,3.543v-3.04h1.574v3.112c0,0.277,0.076,0.495,0.23,0.652c0.154,0.156,0.367,0.234,0.643,0.234   c0.271,0,0.482-0.077,0.639-0.23c0.152-0.154,0.23-0.374,0.23-0.656V0.503z" class=" kxf_3E3A39"></path> <path fill="#3E3A39" d="M37.209,3.917l1.5-0.093c0.033,0.242,0.1,0.428,0.199,0.556c0.162,0.207,0.395,0.31,0.695,0.31   c0.225,0,0.398-0.053,0.52-0.158c0.123-0.105,0.184-0.228,0.184-0.367c0-0.133-0.059-0.25-0.174-0.355   c-0.115-0.104-0.385-0.203-0.809-0.295c-0.691-0.155-1.184-0.361-1.479-0.619C37.549,2.637,37.4,2.309,37.4,1.909   c0-0.263,0.076-0.51,0.229-0.743c0.152-0.232,0.381-0.416,0.686-0.55s0.723-0.2,1.254-0.2c0.652,0,1.15,0.121,1.49,0.363   c0.344,0.244,0.547,0.629,0.611,1.158l-1.484,0.086c-0.039-0.229-0.123-0.396-0.25-0.5c-0.127-0.105-0.301-0.157-0.523-0.157   c-0.184,0-0.32,0.038-0.414,0.116s-0.139,0.172-0.139,0.284c0,0.081,0.037,0.153,0.113,0.22s0.252,0.129,0.529,0.188   c0.689,0.148,1.184,0.299,1.48,0.45c0.299,0.153,0.516,0.341,0.652,0.565c0.135,0.226,0.203,0.477,0.203,0.756   c0,0.326-0.09,0.629-0.271,0.904c-0.18,0.276-0.434,0.486-0.76,0.629c-0.324,0.143-0.732,0.213-1.229,0.213   c-0.867,0-1.467-0.166-1.803-0.5C37.443,4.857,37.254,4.432,37.209,3.917z" class=" kxf_3E3A39"></path><path fill="#3E3A39" d="M42.695,0.503h1.578v5.103h-1.578V0.503z"
                                      class=" kxf_3E3A39"></path>
                                <path fill="#3E3A39"
                                      d="M45.416,0.503h1.473l1.92,2.823V0.503h1.486v5.103h-1.486l-1.91-2.802v2.802h-1.482V0.503z"
                                      class=" kxf_3E3A39"></path>
                                <path fill="#3E3A39"
                                      d="M51.338,0.503h4.227v1.089h-2.646v0.812h2.453v1.04h-2.453v1.006h2.723v1.156h-4.303V0.503z"
                                      class=" kxf_3E3A39"></path>
                                <path fill="#3E3A39"
                                      d="M56.215,3.917l1.5-0.093c0.031,0.242,0.098,0.428,0.197,0.556c0.162,0.207,0.395,0.31,0.697,0.31   c0.225,0,0.396-0.053,0.52-0.158c0.121-0.105,0.184-0.228,0.184-0.367c0-0.133-0.059-0.25-0.176-0.355   c-0.115-0.104-0.385-0.203-0.807-0.295c-0.691-0.155-1.186-0.361-1.479-0.619c-0.297-0.258-0.445-0.586-0.445-0.985   c0-0.263,0.076-0.51,0.227-0.743c0.152-0.232,0.381-0.416,0.686-0.55s0.723-0.2,1.256-0.2c0.65,0,1.148,0.121,1.49,0.363   c0.342,0.244,0.547,0.629,0.611,1.158l-1.486,0.086c-0.039-0.229-0.121-0.396-0.248-0.5c-0.127-0.105-0.301-0.157-0.525-0.157   c-0.182,0-0.32,0.038-0.412,0.116c-0.094,0.078-0.141,0.172-0.141,0.284c0,0.081,0.039,0.153,0.115,0.22   c0.074,0.066,0.25,0.129,0.529,0.188c0.689,0.148,1.182,0.299,1.48,0.45c0.297,0.153,0.516,0.341,0.65,0.565   c0.137,0.226,0.203,0.477,0.203,0.756c0,0.326-0.09,0.629-0.271,0.904c-0.18,0.276-0.432,0.486-0.758,0.629   c-0.324,0.143-0.734,0.213-1.229,0.213c-0.867,0-1.469-0.166-1.803-0.5S56.258,4.432,56.215,3.917z"
                                      class=" kxf_3E3A39"></path>
                                <path fill="#3E3A39"
                                      d="M61.361,3.917l1.5-0.093c0.031,0.242,0.098,0.428,0.199,0.556c0.16,0.207,0.393,0.31,0.695,0.31   c0.225,0,0.398-0.053,0.52-0.158c0.123-0.105,0.184-0.228,0.184-0.367c0-0.133-0.059-0.25-0.176-0.355   c-0.115-0.104-0.385-0.203-0.807-0.295c-0.691-0.155-1.184-0.361-1.479-0.619c-0.297-0.258-0.445-0.586-0.445-0.985   c0-0.263,0.076-0.51,0.229-0.743c0.15-0.232,0.379-0.416,0.686-0.55c0.305-0.134,0.723-0.2,1.254-0.2   c0.652,0,1.148,0.121,1.49,0.363c0.342,0.244,0.547,0.629,0.611,1.158l-1.486,0.086c-0.039-0.229-0.121-0.396-0.248-0.5   c-0.127-0.105-0.301-0.157-0.525-0.157c-0.182,0-0.318,0.038-0.412,0.116S63.01,1.654,63.01,1.767c0,0.081,0.039,0.153,0.115,0.22   c0.074,0.066,0.25,0.129,0.529,0.188c0.689,0.148,1.184,0.299,1.48,0.45c0.299,0.153,0.516,0.341,0.65,0.565   c0.137,0.226,0.205,0.477,0.205,0.756c0,0.326-0.092,0.629-0.273,0.904c-0.18,0.276-0.434,0.486-0.758,0.629   s-0.734,0.213-1.229,0.213c-0.867,0-1.469-0.166-1.803-0.5S61.404,4.432,61.361,3.917z"
                                      class=" kxf_3E3A39"></path>
                                <path fill="#3E3A39"
                                      d="M70.451,3.816l0.674,0.171c-0.141,0.554-0.395,0.977-0.764,1.269c-0.367,0.291-0.816,0.436-1.348,0.436   c-0.551,0-0.998-0.111-1.342-0.335c-0.344-0.225-0.605-0.549-0.787-0.973c-0.18-0.425-0.27-0.881-0.27-1.368   c0-0.531,0.102-0.995,0.305-1.39c0.203-0.396,0.492-0.696,0.865-0.901c0.375-0.205,0.787-0.309,1.238-0.309   c0.51,0,0.939,0.13,1.287,0.391c0.35,0.26,0.59,0.625,0.729,1.096l-0.664,0.156c-0.119-0.371-0.291-0.642-0.516-0.811   c-0.227-0.17-0.508-0.254-0.85-0.254c-0.393,0-0.719,0.094-0.982,0.281c-0.264,0.188-0.449,0.441-0.557,0.758   c-0.105,0.316-0.158,0.643-0.158,0.979c0,0.435,0.063,0.813,0.189,1.137c0.125,0.324,0.322,0.565,0.59,0.726   c0.266,0.161,0.555,0.24,0.865,0.24c0.379,0,0.699-0.108,0.961-0.327C70.182,4.569,70.357,4.246,70.451,3.816z"
                                      class=" kxf_3E3A39"></path>
                                <path fill="#3E3A39"
                                      d="M71.398,5.605l1.959-5.103h0.727l2.088,5.103h-0.768l-0.596-1.545h-2.133l-0.561,1.545H71.398z    M72.869,3.51h1.73l-0.533-1.412c-0.162-0.43-0.283-0.783-0.361-1.059c-0.064,0.327-0.156,0.652-0.275,0.975L72.869,3.51z"
                                      class=" kxf_3E3A39"></path>
                                <path fill="#3E3A39"
                                      d="M76.723,5.605V0.503h2.262c0.455,0,0.801,0.046,1.037,0.138s0.426,0.254,0.566,0.486   c0.143,0.23,0.213,0.488,0.213,0.768c0,0.363-0.117,0.668-0.352,0.916s-0.596,0.406-1.084,0.473   c0.178,0.086,0.313,0.171,0.404,0.254c0.199,0.182,0.385,0.408,0.561,0.68l0.889,1.389h-0.85l-0.674-1.062   c-0.197-0.306-0.361-0.541-0.488-0.703c-0.127-0.163-0.242-0.276-0.342-0.342c-0.102-0.064-0.203-0.11-0.309-0.136   c-0.078-0.016-0.203-0.023-0.375-0.023h-0.785v2.266H76.723z M77.396,2.756h1.453c0.309,0,0.549-0.033,0.723-0.098   c0.176-0.063,0.307-0.165,0.396-0.306c0.092-0.14,0.137-0.292,0.137-0.458c0-0.24-0.09-0.439-0.264-0.594   c-0.174-0.156-0.451-0.234-0.83-0.234h-1.615V2.756z"
                                      class=" kxf_3E3A39"></path>
                                <path fill="#3E3A39"
                                      d="M81.859,5.605V0.503h1.756c0.398,0,0.701,0.024,0.908,0.073c0.293,0.067,0.543,0.189,0.748,0.365   c0.271,0.229,0.471,0.519,0.605,0.872c0.133,0.354,0.199,0.759,0.199,1.213c0,0.388-0.045,0.731-0.135,1.03   c-0.092,0.299-0.207,0.547-0.348,0.742c-0.143,0.197-0.297,0.352-0.465,0.463c-0.168,0.113-0.371,0.198-0.609,0.256   c-0.238,0.059-0.512,0.088-0.82,0.088H81.859z M82.535,5.004h1.088c0.336,0,0.6-0.032,0.793-0.095   c0.191-0.063,0.344-0.151,0.455-0.265c0.162-0.16,0.287-0.375,0.375-0.646c0.09-0.27,0.135-0.598,0.135-0.982   c0-0.533-0.088-0.943-0.264-1.23c-0.174-0.286-0.387-0.479-0.639-0.576c-0.18-0.068-0.473-0.104-0.873-0.104h-1.07V5.004z"
                                      class=" kxf_3E3A39"></path>
                            </g>
                                <g>
                                    <polygon fill="#DD7D1B" points="4.026,0 0,12.604 5.331,12.604 9.357,0  "
                                             class=" kxf_DD7D1B"></polygon>
                                    <polygon fill="#DD7D1B" points="10.46,0 6.435,12.604 11.765,12.604 15.791,0  "
                                             class=" kxf_DD7D1B"></polygon>
                                    <polygon fill="#DD7D1B"
                                             points="19.27,9.254 22.225,0 16.895,0 13.938,9.254 13.938,9.254 13.153,11.713 12.867,12.604    12.867,12.604 12.867,12.604 21.102,12.604 22.172,9.254  "
                                             class=" kxf_DD7D1B"></polygon>
                                </g>
                                <g>
                                    <path fill="#3E3A39"
                                          d="M26.146,11.287V7.538h1.291c0.293,0,0.516,0.019,0.668,0.054c0.215,0.05,0.398,0.139,0.549,0.269   C28.854,8.027,29,8.24,29.098,8.5c0.1,0.262,0.148,0.559,0.148,0.893c0,0.284-0.035,0.537-0.1,0.756   c-0.066,0.221-0.152,0.402-0.256,0.547c-0.105,0.144-0.219,0.258-0.342,0.34c-0.125,0.082-0.273,0.145-0.447,0.188   c-0.176,0.043-0.375,0.064-0.602,0.064H26.146z M26.643,10.844h0.801c0.246,0,0.441-0.022,0.582-0.068s0.252-0.111,0.336-0.194   c0.117-0.118,0.209-0.276,0.273-0.475c0.066-0.198,0.1-0.439,0.1-0.722c0-0.393-0.064-0.693-0.193-0.904s-0.285-0.352-0.469-0.423   C27.939,8.006,27.725,7.98,27.43,7.98h-0.787V10.844z"
                                          class=" kxf_3E3A39"></path>
                                    <path fill="#3E3A39"
                                          d="M32.389,7.538h0.496v2.166c0,0.376-0.043,0.676-0.129,0.897c-0.084,0.222-0.238,0.401-0.461,0.541   c-0.223,0.139-0.516,0.208-0.877,0.208c-0.35,0-0.637-0.061-0.861-0.181c-0.223-0.121-0.383-0.297-0.477-0.525   c-0.098-0.23-0.145-0.543-0.145-0.94V7.538h0.496v2.163c0,0.326,0.031,0.566,0.09,0.72c0.061,0.155,0.166,0.273,0.313,0.356   c0.148,0.084,0.328,0.126,0.541,0.126c0.365,0,0.625-0.083,0.779-0.248c0.156-0.166,0.234-0.483,0.234-0.954V7.538z"
                                          class=" kxf_3E3A39"></path>
                                    <path fill="#3E3A39"
                                          d="M33.559,9.462c0-0.623,0.168-1.11,0.502-1.462c0.334-0.353,0.766-0.527,1.293-0.527   c0.346,0,0.658,0.082,0.936,0.247c0.279,0.165,0.49,0.396,0.637,0.692c0.145,0.295,0.219,0.631,0.219,1.006   c0,0.379-0.078,0.72-0.23,1.02c-0.154,0.301-0.371,0.527-0.652,0.682s-0.584,0.231-0.91,0.231c-0.354,0-0.668-0.085-0.945-0.255   c-0.279-0.171-0.488-0.404-0.633-0.698C33.631,10.102,33.559,9.791,33.559,9.462z M34.07,9.469c0,0.451,0.121,0.809,0.365,1.067   c0.242,0.261,0.547,0.39,0.912,0.39c0.375,0,0.682-0.131,0.924-0.394c0.24-0.263,0.361-0.635,0.361-1.117   c0-0.306-0.051-0.571-0.154-0.8c-0.104-0.227-0.254-0.404-0.453-0.529c-0.197-0.125-0.422-0.188-0.668-0.188   c-0.352,0-0.654,0.121-0.908,0.362C34.197,8.502,34.07,8.904,34.07,9.469z"
                                          class=" kxf_3E3A39"></path>
                                    <path fill="#3E3A39"
                                          d="M37.783,11.287V7.538h1.291c0.293,0,0.516,0.019,0.668,0.054c0.215,0.05,0.398,0.139,0.549,0.269   c0.199,0.167,0.346,0.38,0.445,0.64c0.098,0.262,0.146,0.559,0.146,0.893c0,0.284-0.033,0.537-0.1,0.756   c-0.066,0.221-0.152,0.402-0.256,0.547c-0.105,0.144-0.219,0.258-0.342,0.34s-0.273,0.145-0.447,0.188s-0.375,0.064-0.602,0.064   H37.783z M38.279,10.844h0.801c0.246,0,0.441-0.022,0.582-0.068s0.252-0.111,0.336-0.194c0.117-0.118,0.209-0.276,0.273-0.475   c0.066-0.198,0.1-0.439,0.1-0.722c0-0.393-0.064-0.693-0.193-0.904s-0.285-0.352-0.469-0.423c-0.133-0.052-0.348-0.077-0.641-0.077   h-0.789V10.844z"
                                          class=" kxf_3E3A39"></path>
                                    <path fill="#3E3A39"
                                          d="M44.025,7.538h0.496v2.166c0,0.376-0.043,0.676-0.129,0.897c-0.084,0.222-0.238,0.401-0.461,0.541   c-0.223,0.139-0.516,0.208-0.875,0.208c-0.352,0-0.639-0.061-0.861-0.181c-0.225-0.121-0.383-0.297-0.479-0.525   c-0.096-0.23-0.145-0.543-0.145-0.94V7.538h0.496v2.163c0,0.326,0.031,0.566,0.092,0.72c0.059,0.155,0.164,0.273,0.313,0.356   c0.146,0.084,0.326,0.126,0.541,0.126c0.363,0,0.623-0.083,0.777-0.248c0.156-0.166,0.234-0.483,0.234-0.954V7.538z"
                                          class=" kxf_3E3A39"></path>
                                    <path fill="#3E3A39"
                                          d="M45.195,9.462c0-0.623,0.168-1.11,0.502-1.462c0.334-0.353,0.766-0.527,1.293-0.527   c0.346,0,0.658,0.082,0.936,0.247c0.279,0.165,0.492,0.396,0.637,0.692c0.146,0.295,0.219,0.631,0.219,1.006   c0,0.379-0.076,0.72-0.23,1.02c-0.154,0.301-0.371,0.527-0.652,0.682c-0.279,0.154-0.584,0.231-0.91,0.231   c-0.352,0-0.668-0.085-0.945-0.255c-0.279-0.171-0.488-0.404-0.633-0.698C45.268,10.102,45.195,9.791,45.195,9.462z M45.707,9.469   c0,0.451,0.121,0.809,0.365,1.067c0.242,0.261,0.547,0.39,0.914,0.39c0.373,0,0.68-0.131,0.922-0.394   c0.24-0.263,0.361-0.635,0.361-1.117c0-0.306-0.051-0.571-0.154-0.8c-0.104-0.227-0.254-0.404-0.453-0.529   c-0.197-0.125-0.422-0.188-0.668-0.188c-0.352,0-0.654,0.121-0.906,0.362C45.834,8.502,45.707,8.904,45.707,9.469z"
                                          class=" kxf_3E3A39"></path>
                                    <path fill="#3E3A39"
                                          d="M50.477,11.287V9.699l-1.445-2.161h0.604l0.738,1.13c0.137,0.211,0.264,0.423,0.383,0.635   c0.111-0.195,0.248-0.417,0.408-0.662l0.727-1.103h0.576l-1.494,2.161v1.588H50.477z"
                                          class=" kxf_3E3A39"></path>
                                    <path fill="#3E3A39" d="M52.998,11.287V7.538h0.496v3.749H52.998z"
                                          class=" kxf_3E3A39"></path>
                                    <path fill="#3E3A39"
                                          d="M54.363,11.287V7.538h0.508l1.969,2.943V7.538h0.477v3.749h-0.51l-1.969-2.946v2.946H54.363z"
                                          class=" kxf_3E3A39"></path>
                                    <path fill="#3E3A39" d="M58.221,11.287v-0.525h0.525v0.525H58.221z"
                                          class=" kxf_3E3A39"></path>
                                    <path fill="#3E3A39"
                                          d="M62.279,9.973l0.496,0.125c-0.104,0.408-0.291,0.719-0.561,0.933c-0.271,0.214-0.602,0.32-0.992,0.32   c-0.404,0-0.732-0.082-0.984-0.247c-0.254-0.164-0.447-0.402-0.578-0.715c-0.133-0.312-0.197-0.646-0.197-1.004   c0-0.391,0.074-0.731,0.223-1.021c0.148-0.291,0.361-0.512,0.637-0.662C60.598,7.55,60.9,7.475,61.23,7.475   c0.375,0,0.691,0.096,0.947,0.286s0.434,0.46,0.533,0.806l-0.488,0.115c-0.086-0.273-0.213-0.473-0.379-0.596   c-0.164-0.125-0.373-0.188-0.623-0.188c-0.289,0-0.529,0.07-0.721,0.207c-0.195,0.139-0.33,0.324-0.41,0.557   c-0.078,0.232-0.117,0.473-0.117,0.72c0,0.319,0.047,0.597,0.141,0.835c0.092,0.238,0.236,0.416,0.432,0.533   c0.197,0.117,0.41,0.176,0.637,0.176c0.279,0,0.514-0.08,0.707-0.24C62.08,10.525,62.211,10.287,62.279,9.973z"
                                          class=" kxf_3E3A39"></path>
                                    <path fill="#3E3A39"
                                          d="M63.236,9.462c0-0.623,0.166-1.11,0.5-1.462c0.336-0.353,0.766-0.527,1.295-0.527   c0.346,0,0.658,0.082,0.936,0.247s0.49,0.396,0.635,0.692c0.146,0.295,0.219,0.631,0.219,1.006c0,0.379-0.076,0.72-0.229,1.02   c-0.154,0.301-0.371,0.527-0.652,0.682s-0.584,0.231-0.912,0.231c-0.352,0-0.666-0.085-0.943-0.255   c-0.279-0.171-0.49-0.404-0.633-0.698C63.309,10.102,63.236,9.791,63.236,9.462z M63.748,9.469c0,0.451,0.121,0.809,0.363,1.067   c0.244,0.261,0.547,0.39,0.914,0.39c0.373,0,0.682-0.131,0.922-0.394c0.242-0.263,0.361-0.635,0.361-1.117   c0-0.306-0.051-0.571-0.154-0.8c-0.102-0.227-0.254-0.404-0.453-0.529c-0.197-0.125-0.42-0.188-0.668-0.188   c-0.35,0-0.652,0.121-0.906,0.362S63.748,8.904,63.748,9.469z"
                                          class=" kxf_3E3A39"></path>
                                    <path fill="#3E3A39"
                                          d="M67.445,11.287V7.538h0.746l0.887,2.654c0.082,0.247,0.143,0.433,0.18,0.556   c0.043-0.137,0.109-0.337,0.199-0.602l0.896-2.608h0.668v3.749h-0.479V8.149l-1.09,3.138h-0.445l-1.086-3.191v3.191H67.445z"
                                          class=" kxf_3E3A39"></path>
                                </g> </svg>