<?xml version="1.0" ?>
<svg xmlns="http://www.w3.org/2000/svg" xmlns:xlink="http://www.w3.org/1999/xlink"
                                 version="1.1"
                                 x="0px"
                                 y="0px"
                                 width="28.703" height="28.703" viewBox="0 0 28.703 28.703"
                                 enable-background="new 0 0 28.703 28.703"
                                 xml:space="preserve" preserveAspectRatio="none" class="svg-4" data-inittext="1"> <g>
                                <path fill="#4C4948"
                                      d="M14.304,10.1c-1.739,0-3.146,1.406-3.146,3.15c0,1.74,1.407,3.145,3.146,3.145s3.152-1.404,3.152-3.145   C17.456,11.506,16.043,10.1,14.304,10.1z"
                                      class=" kxf_4C4948"></path>
                                <path fill="#4C4948"
                                      d="M23.551,0H5.151C2.308,0,0,2.305,0,5.152v18.4c0,2.844,2.308,5.15,5.151,5.15h18.399   c2.849,0,5.152-2.307,5.152-5.15v-18.4C28.703,2.305,26.399,0,23.551,0z M21.179,18.143l-0.195,0.213   c-0.318,0.414-0.673,0.799-1.056,1.143l-5.624,6.107l-5.631-6.111c-0.376-0.34-0.725-0.717-1.033-1.121l-0.212-0.23h0.025   c-0.994-1.385-1.59-3.064-1.59-4.893c0-4.662,3.779-8.439,8.44-8.439c4.662,0,8.443,3.777,8.443,8.439   c0,1.828-0.604,3.508-1.588,4.893H21.179z"
                                      class=" kxf_4C4948"></path>
                            </g> </svg>
