<?xml version="1.0" ?>
<svg xmlns="http://www.w3.org/2000/svg" xmlns:xlink="http://www.w3.org/1999/xlink"
                                 version="1.1"
                                 x="0px"
                                 y="0px"
                                 width="28.703" height="28.704" viewBox="0 0 28.703 28.704"
                                 enable-background="new 0 0 28.703 28.704"
                                 xml:space="preserve" preserveAspectRatio="none" class="svg-5" data-inittext="1"> <path
                                    fill="#4C4948"
                                    d="M23.551,0H5.151C2.308,0,0,2.306,0,5.152v18.4c0,2.844,2.308,5.151,5.151,5.151h18.399  c2.849,0,5.152-2.308,5.152-5.151v-18.4C28.703,2.306,26.399,0,23.551,0z M20.65,22.583c-2.356-0.451-6.471-2.976-8.932-5.467  c-2.456-2.493-5.406-7.38-4.728-9.08c0.499-1.254,2.753-2.335,3.737-2.078c1.455,0.383,2.84,2.872,2.84,3.635  c0,0.762-1.248,1.939-1.662,2.837c0.208,1.491,3.323,4.434,4.919,5.126c0.271,0,2.005-1.491,2.767-1.594  c1.042-0.139,4.006,1.559,4.038,2.978C23.562,20.463,22.07,22.892,20.65,22.583z"
                                    class=" kxf_4C4948"></path> </svg>
