<?xml version="1.0" ?>
<svg xmlns="http://www.w3.org/2000/svg" xmlns:xlink="http://www.w3.org/1999/xlink"
                                 version="1.1"
                                 x="0px"
                                 y="0px"
                                 width="28.703" height="28.703" viewBox="0 0 28.703 28.703"
                                 enable-background="new 0 0 28.703 28.703"
                                 xml:space="preserve" preserveAspectRatio="none" class="svg-6" data-inittext="1"> <g>
                                <polygon fill="#4C4948" points="7.621,9.255 14.651,16.532 21.68,9.255 14.651,13.136  "
                                         class=" kxf_4C4948"></polygon>
                                <path fill="#4C4948"
                                      d="M23.551,0.001H5.151C2.308,0.001,0,2.308,0,5.151v18.4c0,2.848,2.308,5.151,5.151,5.151h18.399   c2.849,0,5.152-2.304,5.152-5.151v-18.4C28.703,2.308,26.399,0.001,23.551,0.001z M23.242,19.739c0,0.877-0.711,1.583-1.587,1.583   H7.636c-0.868,0-1.58-0.706-1.58-1.583V9.173c0-0.872,0.712-1.582,1.58-1.582h14.02c0.876,0,1.587,0.71,1.587,1.582V19.739z"
                                      class=" kxf_4C4948"></path>
                            </g> </svg>
