<?xml version="1.0" ?>
<svg xmlns="http://www.w3.org/2000/svg" xmlns:xlink="http://www.w3.org/1999/xlink"
                                 version="1.1"
                                 x="0px"
                                 y="0px"
                                 width="28.703" height="28.7" viewBox="0 0 28.703 28.7"
                                 enable-background="new 0 0 28.703 28.7"
                                 xml:space="preserve" preserveAspectRatio="none" class="svg-7" data-inittext="1"> <path
                                    fill="#4C4948"
                                    d="M23.551,0H5.151C2.308,0,0,2.309,0,5.149v18.401C0,26.397,2.308,28.7,5.151,28.7h18.399  c2.849,0,5.152-2.303,5.152-5.149V5.149C28.703,2.309,26.399,0,23.551,0z M15.596,20.029l-1.771,1.775  c-1.921,1.917-5.138,1.814-7.178-0.224c-2.044-2.045-2.146-5.264-0.229-7.179l1.78-1.774c0.394-0.393,1.033-0.393,1.431,0  c0.394,0.397,0.394,1.042,0,1.434l-1.773,1.779c-1.127,1.121-1.024,3.053,0.229,4.303c1.245,1.248,3.172,1.35,4.302,0.222  l1.771-1.774c0.397-0.394,1.044-0.394,1.438,0C15.992,18.992,15.992,19.634,15.596,20.029z M11.214,18.442  c-0.394,0.398-1.038,0.398-1.434,0c-0.397-0.397-0.397-1.035,0-1.434l7.007-7.008c0.398-0.397,1.041-0.397,1.438,0  c0.394,0.395,0.394,1.036,0,1.434L11.214,18.442z M21.808,13.819l-1.771,1.77c-0.397,0.396-1.041,0.396-1.437,0  c-0.396-0.395-0.396-1.039,0-1.436l1.779-1.771c1.12-1.124,1.017-3.057-0.23-4.306c-1.247-1.252-3.182-1.353-4.309-0.227  l-1.768,1.773c-0.399,0.398-1.04,0.398-1.441,0c-0.396-0.395-0.396-1.037,0-1.434l1.779-1.774c1.915-1.913,5.132-1.815,7.175,0.225  C23.626,8.681,23.727,11.899,21.808,13.819z"
                                    class=" kxf_4C4948"></path> </svg>

