<?xml version="1.0" ?>
<svg xmlns="http://www.w3.org/2000/svg" xmlns:xlink="http://www.w3.org/1999/xlink"
                                 version="1.1" x="0px" y="0px" width="260.79" height="159.578" viewBox="0 0 260.79 159.578"
                                 enable-background="new 0 0 260.79 159.578" xml:space="preserve"
                                 preserveAspectRatio="none" data-inittext="1"> <rect fill="#80B696" width="100%"
                                                                                     height="100%"
                                                                                     class=" kxf_80B696"></rect>
                                <path opacity="0.3" fill="#FFFFFF"
                                      d="M259.809,85.218v-0.125h-19.971l20.056-18.528l-0.085-0.092l0.03-0.121l-22.98-5.646  l23.044-25.876l-0.093-0.083l-0.008-0.125l-26.489,1.629L248.5,20.389l11.255,5.356l0.054-0.113l0.122-0.03l-6.26-25.414  l-0.122,0.03l-0.088-0.089l-7.799,7.766L231.68,0.382l-0.059,0.11l-0.065-0.106l-12.205,7.44V0.615h-0.25v7.078l-5.736-7.156  l-0.195,0.156l5.915,7.379l-5.799,15.938l-6.333-23.824l-0.121,0.032l-0.097-0.079l-21.708,26.351V8.369l10.914-8.053l-0.148-0.201  l-10.766,7.942v-7.84h-0.25v7.786l-7.89-7.875l-0.177,0.178l8.067,8.052v18.152L161.16,0.135l-0.093,0.083l-0.125,0.014l2.58,23.809  L143.206,0.411l-0.095,0.081l-0.069-0.104l-30.956,20.488l2.546-20.368l-0.248-0.031l-2.559,20.466L75.888,3.46l35.549-2.72  l-0.02-0.25l-36.01,2.755l0.01,0.125l-0.013-0.124l-45.82,4.701l12.127-7.021l-0.125-0.217L29.144,7.914V0.298h-0.25v7.553  l-8.278-7.451l-0.167,0.186l8.454,7.609l0.001,0.01L0.44,14.92l0.029,0.125l-0.094,0.076l37.507,46.363L0.509,50.253l-0.072,0.24  L37.88,61.745L0.421,78.837l0.065,0.143H0.353v0.25h0.116l-0.073,0.094l40.984,32.293l-41.03,0.932l0.006,0.25l40.925-0.93  L0.466,137.484l0.133,0.211l40.492-25.413l-40.628,47.02l0.189,0.164l12.122-14.029l44.042,14.113l0.009,0.028l0.04-0.013  l0.039,0.013l0.009-0.027l0.109-0.035l0.022,0.016l0.02-0.028l42.692-13.5l-0.03-0.094l12.318,13.634l0.186-0.168l-14.067-15.569  l13.971-5.222l12.416,5.284l0.049-0.115l0.029,0.121l21.841-5.282l3.29,5.228l0.106-0.066l0.031,0.121l24.274-6.124v6.003h0.25  v-6.012l24.641,4.687l0.023-0.123l-0.006,0.125l30.32,1.448l0.006-0.125l0.052,0.113l30.404-13.919l-0.052-0.113l0.009-0.125  l-23.676-1.787l23.722-11.725l-0.11-0.225l-23.724,11.726l12.25-18.846l11.508,2.059l0.044-0.246l-11.426-2.044l11.516-23.348  L259.809,85.218z M239.433,85.126l0.085,0.092l-0.104-0.068l-10.529,16.016l-9.479-15.893l39.737-18.354L239.433,85.126z   M189.304,122.533l29.907-37.098l9.525,15.97l-5.69,11.162L189.304,122.533z M222.898,112.873l-9.691,20.224l-23.884-10.308  L222.898,112.873z M81.232,101.501l-5.648-30.454l36.397,16.328L81.232,101.501z M111.841,87.714l-30.578,37.089v-23.041  L111.841,87.714z M59.564,45.144l15.729-12.341v37.595L59.564,45.144z M75.15,70.641l-36.636-8.979l20.853-16.362L75.15,70.641z   M38.734,61.17l18.934-29.712l17.417,1.19L38.734,61.17z M38.303,61.381l-9.07-52.742l28.204,22.716L38.303,61.381z M74.815,70.815  l-45.566,8.121l9.05-17.071L74.815,70.815z M75.105,71.018L41.77,111.489L29.19,79.201L75.105,71.018z M59.691,90.124L80.8,101.639  l-38.73,9.879L59.691,90.124z M81.014,101.843v23.133l-38.845-13.225L81.014,101.843z M75.609,70.783l23.909-33.389l12.306,48.665  l-0.019,0.187l0.068,0.007l0.228,0.9L75.609,70.783z M144.24,56.113l-3.711,18.417l-10.206-25.896L144.24,56.113z M130.579,48.487  h24.37L144.372,55.9L130.579,48.487z M112.509,87.411l27.8-12.191l-12.65,26.255L112.509,87.411z M127.494,101.663l-15.084,9.615  V87.66L127.494,101.663z M140.307,74.647l-25.392-16.764L99.918,37.363l30.068,11.097L140.307,74.647z M114.698,58.011l-2.8,27.324  L99.852,37.697L114.698,58.011z M112.077,86.043l2.854-27.849l25.377,16.753l-27.938,12.252L112.077,86.043z M112.409,111.575  l14.863-9.475l-14.863,22.632V111.575z M127.716,101.88l20.201,20.779l-35.391,2.35L127.716,101.88z M127.848,101.657l12.66-26.273  l7.502,47.013L127.848,101.657z M140.725,75.158l28.622,10.128l-21.084,37.108L140.725,75.158z M175.367,65.509l0.083,0.093  l20.319-18.215l3.179,28.691l-29.416,9.008l-28.545-10.101L175.4,65.63L175.367,65.509z M213.268,46.172l0.056,0.112l19.579-9.701  l3.581,24.073l-23.172,0.882l-17.12-14.299l17.084-0.942L213.268,46.172z M213.426,61.784l22.951-0.873l-17.096,24.014  L213.426,61.784z M219.066,85.093h-19.857v-8.874l13.992-14.307L219.066,85.093z M213.083,61.674l-13.905,14.217l-3.153-28.464  L213.083,61.674z M164.881,103.992l-0.093-0.083l-15.897,17.888l20.712-36.454h28.995l-24.362,13.355l-9.414,5.185L164.881,103.992z   M170.363,85.093l28.596-8.757v8.757H170.363z M164.896,104.163l23.695,18.479h-40.118L164.896,104.163z M165.107,104.01  l9.248-5.093l24.532-13.449l-10.003,37.085L165.107,104.01z M199.18,85.343h19.786l-29.736,36.885L199.18,85.343z M259.433,66.509  l-39.832,18.398l17.079-23.989L259.433,66.509z M259.514,34.89l-22.802,25.604l-3.568-23.983L259.514,34.89z M233.146,36.062  l1.345-22.34l13.771,6.554L233.146,36.062z M253.48,0.463l6.072,24.649l-13.7-17.054L253.48,0.463z M245.602,8.147l13.766,17.136  l-24.882-11.842l-2.687-12.712L245.602,8.147z M231.536,0.69l2.673,12.645l-14.695-5.314L231.536,0.69z M219.302,8.209l14.944,5.404  l-1.358,22.567L213.42,24.374L219.302,8.209z M213.299,24.592l19.442,11.791l-19.506,9.665l-17.103,0.944L213.299,24.592z   M206.774,0.485l6.334,23.829l-27.92,2.373L206.774,0.485z M212.996,24.576l-17.111,22.326l-10.782-19.956L212.996,24.576z   M184.86,27.022l10.85,20.082l-20.306,18.203l-11.604-22.632l-0.223,0.113l11.607,22.64l-34.455,9.367l3.763-18.675l10.924-7.656  l-0.072-0.103l0.074,0.101L184.86,27.022z M155.595,48.026l8.18-23.464l20.795,2.363L155.595,48.026z M161.233,0.591l23.357,26.086  l-20.787-2.362L161.233,0.591z M163.548,24.453l-8.077,23.171V26.838h-0.125l0.113-0.053L143.604,1.257L163.548,24.453z   M143.142,0.855l12.079,26.01v21.372h-24.975L143.142,0.855z M142.903,0.78l-12.87,47.284l-17.931-26.898L142.903,0.78z   M111.921,21.345l17.844,26.768L99.771,37.043L111.921,21.345z M99.574,36.89L88.379,21.256h23.295L99.574,36.89z M99.289,36.922  L75.689,32.47l12.425-11.153L99.289,36.922z M111.386,21.006H88.2L75.807,3.698L111.386,21.006z M75.543,3.76l12.425,17.353  L75.543,32.266V3.76z M75.543,32.697l23.813,4.492L75.543,70.445V32.697z M80.968,101.446L59.853,89.928l15.491-18.807  L80.968,101.446z M75.293,32.412l-17.472-1.194L75.293,3.799V32.412z M75.174,3.521L57.572,31.142L29.168,8.266l-0.004-0.024  L75.174,3.521z M0.695,15.117l28.252-6.666l9.083,52.817L0.695,15.117z M37.952,61.986l-9.009,16.993H0.708L37.952,61.986z   M0.681,79.229h28.252l12.514,32.121L0.681,79.229z M41.771,111.879l38.762,13.197l-54.146,4.606L41.771,111.879z M56.908,159.29  l-0.042,0.014L12.952,145.23l13.2-15.275l54.034-4.598l-51.209,18.277l0.084,0.236l51.748-18.47L56.908,159.29z M99.614,145.785  l-42.313,13.38l23.849-33.814L99.614,145.785z M97.982,143.606l-16.367-18.115l30.185,12.95L97.982,143.606z M112.014,138.26  l-30.266-12.984h30.41L112.014,138.26z M112.159,125.025H81.746l30.414-13.102V125.025z M112.159,111.438l-1.029,0.655  l-29.565,12.737l30.595-37.11V111.438z M112.263,138.367l0.142-12.809l11.86,17.916L112.263,138.367z M124.623,143.563  l-12.116-18.303l35.332-2.345L124.623,143.563z M146.412,138.349l-21.357,5.166l22.981-20.439L146.412,138.349z M149.923,143.609  l-3.267-5.189l1.644-15.45l25.663,14.575L149.923,143.609z M174.273,137.435l-25.605-14.543h39.988L174.273,137.435z   M199.059,142.173l-24.51-4.662l14.435-14.596l24.018,10.366L199.059,142.173z M199.483,142.198l13.784-8.79l15.682,10.197  L199.483,142.198z M229.345,143.565l-15.763-10.25l21.889-5.126L229.345,143.565z M259.315,129.923l-29.68,13.587l6.122-15.365  L259.315,129.923z M235.598,127.902l-22.105,5.176l9.752-20.351l5.694-11.17l19.089,7.22L235.598,127.902z M248.157,108.558  l-19.087-7.22l10.516-15.995h20.022L248.157,108.558z"
                                      class="kxf_FFFFFF"></path> </svg>

