<?xml version="1.0" ?>
<svg xmlns="http://www.w3.org/2000/svg" xmlns:xlink="http://www.w3.org/1999/xlink"
                                 version="1.1" x="0px" y="0px" width="152.641" height="22.352"
                                 viewBox="0 0 152.641 22.352"
                                 enable-background="new 0 0 152.641 22.352" xml:space="preserve"
                                 preserveAspectRatio="none" data-inittext="1"> <g>
                                <g>
                                    <path fill="#FFFFFF"
                                          d="M46.445,0.893h5.233c0.872,0,1.542,0.217,2.009,0.648c0.466,0.432,0.699,0.967,0.699,1.604    c0,0.534-0.166,0.993-0.498,1.377c-0.224,0.255-0.548,0.456-0.976,0.604c0.649,0.156,1.129,0.425,1.436,0.805    c0.305,0.382,0.458,0.859,0.458,1.436c0,0.469-0.109,0.891-0.327,1.265s-0.516,0.671-0.894,0.889    c-0.235,0.136-0.589,0.234-1.063,0.296c-0.63,0.083-1.047,0.124-1.252,0.124h-4.826V0.893z M49.266,4.441h1.216    c0.436,0,0.74-0.075,0.91-0.225c0.171-0.15,0.256-0.367,0.256-0.651c0-0.263-0.085-0.47-0.256-0.617    c-0.17-0.148-0.47-0.222-0.892-0.222h-1.234V4.441z M49.266,7.996h1.425c0.481,0,0.82-0.085,1.02-0.257    c0.196-0.17,0.295-0.399,0.295-0.688c0-0.267-0.097-0.482-0.293-0.645c-0.194-0.162-0.537-0.243-1.026-0.243h-1.42V7.996z"
                                          class=" kxf_FFFFFF"></path>
                                    <path fill="#FFFFFF"
                                          d="M61.831,0.893h2.788v5.391c0,0.535-0.084,1.039-0.251,1.515c-0.165,0.474-0.427,0.89-0.782,1.245    c-0.355,0.356-0.729,0.605-1.119,0.75c-0.546,0.2-1.197,0.302-1.958,0.302c-0.438,0-0.921-0.031-1.44-0.093    c-0.521-0.062-0.955-0.185-1.305-0.366c-0.351-0.183-0.67-0.444-0.96-0.78c-0.29-0.338-0.488-0.685-0.597-1.043    c-0.171-0.575-0.259-1.085-0.259-1.529V0.893h2.791v5.52c0,0.492,0.135,0.878,0.409,1.156c0.273,0.276,0.652,0.416,1.14,0.416    c0.48,0,0.857-0.137,1.132-0.41c0.272-0.273,0.411-0.662,0.411-1.162V0.893z"
                                          class=" kxf_FFFFFF"></path>
                                    <path fill="#FFFFFF"
                                          d="M65.983,6.947l2.659-0.166c0.059,0.432,0.176,0.761,0.354,0.986c0.286,0.367,0.698,0.549,1.232,0.549    c0.399,0,0.706-0.093,0.923-0.28s0.324-0.403,0.324-0.651c0-0.234-0.103-0.444-0.309-0.63c-0.205-0.184-0.683-0.359-1.433-0.524    c-1.226-0.274-2.099-0.641-2.622-1.098c-0.525-0.457-0.79-1.038-0.79-1.746c0-0.466,0.136-0.904,0.404-1.317    c0.271-0.414,0.676-0.739,1.217-0.976s1.282-0.355,2.224-0.355c1.155,0,2.038,0.215,2.644,0.646    c0.608,0.431,0.969,1.114,1.084,2.052L71.26,3.59c-0.069-0.407-0.217-0.704-0.442-0.889c-0.224-0.186-0.533-0.277-0.929-0.277    c-0.324,0-0.568,0.068-0.733,0.207c-0.165,0.138-0.247,0.305-0.247,0.503c0,0.144,0.067,0.272,0.203,0.389    c0.133,0.119,0.445,0.23,0.938,0.333c1.223,0.264,2.098,0.529,2.626,0.799c0.529,0.271,0.914,0.604,1.154,1.003    c0.24,0.399,0.36,0.846,0.36,1.339c0,0.58-0.159,1.116-0.481,1.605c-0.319,0.489-0.769,0.86-1.346,1.113    c-0.575,0.254-1.301,0.38-2.179,0.38c-1.538,0-2.604-0.296-3.196-0.889C66.397,8.613,66.061,7.86,65.983,6.947z"
                                          class=" kxf_FFFFFF"></path>
                                    <path fill="#FFFFFF" d="M75.71,0.893h2.8V9.94h-2.8V0.893z"
                                          class=" kxf_FFFFFF"></path>
                                    <path fill="#FFFFFF"
                                          d="M80.536,0.893h2.611l3.406,5.006V0.893h2.635V9.94h-2.635l-3.389-4.968V9.94h-2.629V0.893z"
                                          class=" kxf_FFFFFF"></path>
                                    <path fill="#FFFFFF"
                                          d="M91.04,0.893h7.492v1.932H93.84v1.438h4.35v1.845h-4.35v1.784h4.826V9.94H91.04V0.893z"
                                          class=" kxf_FFFFFF"></path>
                                    <path fill="#FFFFFF"
                                          d="M99.686,6.947l2.658-0.166c0.057,0.432,0.176,0.761,0.352,0.986c0.287,0.367,0.699,0.549,1.234,0.549    c0.4,0,0.707-0.093,0.922-0.28c0.217-0.188,0.326-0.403,0.326-0.651c0-0.234-0.104-0.444-0.311-0.63    c-0.205-0.184-0.682-0.359-1.432-0.524c-1.225-0.274-2.1-0.641-2.623-1.098c-0.525-0.457-0.789-1.038-0.789-1.746    c0-0.466,0.135-0.904,0.404-1.317c0.27-0.414,0.676-0.739,1.215-0.976c0.541-0.236,1.283-0.355,2.225-0.355    c1.156,0,2.039,0.215,2.645,0.646c0.607,0.431,0.969,1.114,1.084,2.052l-2.635,0.154c-0.07-0.407-0.217-0.704-0.441-0.889    c-0.225-0.186-0.533-0.277-0.93-0.277c-0.324,0-0.57,0.068-0.732,0.207c-0.166,0.138-0.248,0.305-0.248,0.503    c0,0.144,0.066,0.272,0.203,0.389c0.133,0.119,0.445,0.23,0.938,0.333c1.223,0.264,2.098,0.529,2.627,0.799    c0.527,0.271,0.914,0.604,1.154,1.003c0.24,0.399,0.361,0.846,0.361,1.339c0,0.58-0.16,1.116-0.482,1.605    c-0.32,0.489-0.768,0.86-1.346,1.113c-0.576,0.254-1.301,0.38-2.178,0.38c-1.539,0-2.604-0.296-3.197-0.889    C100.098,8.613,99.762,7.86,99.686,6.947z"
                                          class=" kxf_FFFFFF"></path>
                                    <path fill="#FFFFFF"
                                          d="M108.813,6.947l2.658-0.166c0.057,0.432,0.176,0.761,0.354,0.986c0.285,0.367,0.697,0.549,1.232,0.549    c0.4,0,0.707-0.093,0.922-0.28c0.217-0.188,0.326-0.403,0.326-0.651c0-0.234-0.104-0.444-0.311-0.63    c-0.205-0.184-0.682-0.359-1.432-0.524c-1.227-0.274-2.1-0.641-2.623-1.098c-0.525-0.457-0.789-1.038-0.789-1.746    c0-0.466,0.135-0.904,0.404-1.317c0.27-0.414,0.674-0.739,1.217-0.976c0.539-0.236,1.281-0.355,2.223-0.355    c1.156,0,2.039,0.215,2.645,0.646c0.607,0.431,0.969,1.114,1.084,2.052l-2.635,0.154c-0.07-0.407-0.217-0.704-0.441-0.889    c-0.225-0.186-0.535-0.277-0.93-0.277c-0.324,0-0.568,0.068-0.732,0.207c-0.166,0.138-0.248,0.305-0.248,0.503    c0,0.144,0.066,0.272,0.203,0.389c0.131,0.119,0.445,0.23,0.938,0.333c1.223,0.264,2.098,0.529,2.627,0.799    c0.529,0.271,0.914,0.604,1.154,1.003c0.24,0.399,0.361,0.846,0.361,1.339c0,0.58-0.16,1.116-0.482,1.605    c-0.32,0.489-0.77,0.86-1.346,1.113c-0.576,0.254-1.301,0.38-2.178,0.38c-1.539,0-2.604-0.296-3.197-0.889    C109.225,8.613,108.889,7.86,108.813,6.947z"
                                          class=" kxf_FFFFFF"></path>
                                    <path fill="#FFFFFF"
                                          d="M124.93,6.768l1.197,0.304c-0.25,0.982-0.701,1.732-1.354,2.249c-0.652,0.516-1.449,0.774-2.393,0.774    c-0.975,0-1.768-0.198-2.379-0.596c-0.609-0.397-1.074-0.973-1.395-1.725c-0.318-0.754-0.479-1.562-0.479-2.426    c0-0.942,0.182-1.765,0.541-2.465c0.359-0.702,0.873-1.234,1.535-1.599c0.664-0.364,1.395-0.547,2.193-0.547    c0.906,0,1.668,0.23,2.285,0.692c0.617,0.461,1.045,1.108,1.289,1.943l-1.178,0.277c-0.211-0.658-0.516-1.138-0.914-1.438    c-0.4-0.301-0.9-0.45-1.506-0.45c-0.695,0-1.275,0.166-1.744,0.5c-0.467,0.333-0.793,0.78-0.984,1.342    c-0.189,0.562-0.283,1.141-0.283,1.737c0,0.77,0.113,1.44,0.336,2.016c0.225,0.573,0.574,1.002,1.047,1.285    c0.473,0.285,0.986,0.427,1.537,0.427c0.67,0,1.238-0.193,1.703-0.581C124.452,8.104,124.766,7.529,124.93,6.768z"
                                          class=" kxf_FFFFFF"></path>
                                    <path fill="#FFFFFF"
                                          d="M126.61,9.94l3.475-9.048h1.289l3.703,9.048h-1.363l-1.057-2.74h-3.781l-0.994,2.74H126.61z     M129.219,6.225h3.068l-0.943-2.505c-0.289-0.762-0.502-1.387-0.643-1.877c-0.115,0.581-0.277,1.157-0.488,1.729L129.219,6.225z"
                                          class=" kxf_FFFFFF"></path>
                                    <path fill="#FFFFFF"
                                          d="M136.053,9.94V0.893h4.01c0.807,0,1.42,0.082,1.84,0.244c0.418,0.163,0.756,0.449,1.006,0.861    c0.25,0.411,0.375,0.866,0.375,1.363c0,0.643-0.207,1.183-0.621,1.624c-0.416,0.44-1.059,0.72-1.926,0.838    c0.316,0.152,0.557,0.303,0.721,0.451c0.35,0.321,0.682,0.722,0.992,1.203l1.576,2.463h-1.506l-1.197-1.882    c-0.35-0.543-0.639-0.959-0.863-1.247c-0.227-0.288-0.43-0.489-0.607-0.605c-0.18-0.114-0.361-0.195-0.547-0.24    c-0.137-0.028-0.359-0.043-0.666-0.043h-1.391V9.94H136.053z M137.249,4.887h2.574c0.547,0,0.977-0.058,1.283-0.171    c0.311-0.112,0.545-0.294,0.705-0.543c0.16-0.248,0.24-0.519,0.24-0.812c0-0.428-0.158-0.779-0.467-1.055    c-0.311-0.276-0.801-0.414-1.473-0.414h-2.863V4.887z"
                                          class=" kxf_FFFFFF"></path>
                                    <path fill="#FFFFFF"
                                          d="M145.161,9.94V0.893h3.115c0.705,0,1.242,0.044,1.611,0.13c0.52,0.119,0.961,0.336,1.326,0.648    c0.479,0.403,0.836,0.919,1.072,1.546s0.355,1.345,0.355,2.15c0,0.688-0.08,1.297-0.242,1.827    c-0.16,0.529-0.365,0.969-0.617,1.317c-0.25,0.348-0.525,0.621-0.824,0.82c-0.297,0.199-0.656,0.351-1.078,0.453    c-0.422,0.104-0.906,0.155-1.453,0.155H145.161z M146.358,8.873h1.932c0.596,0,1.064-0.056,1.404-0.167s0.609-0.268,0.811-0.47    c0.285-0.283,0.506-0.665,0.664-1.145c0.158-0.479,0.236-1.061,0.236-1.743c0-0.946-0.152-1.673-0.465-2.182    c-0.311-0.508-0.688-0.849-1.133-1.021c-0.32-0.123-0.838-0.185-1.549-0.185h-1.9V8.873z"
                                          class=" kxf_FFFFFF"></path>
                                </g>
                                <g>
                                    <polygon fill="#FFFFFF" points="7.141,0 0,22.35 9.453,22.35 16.594,0   "
                                             class=" kxf_FFFFFF"></polygon>
                                    <polygon fill="#FFFFFF" points="18.549,0 11.41,22.35 20.863,22.35 28.002,0   "
                                             class=" kxf_FFFFFF"></polygon>
                                    <polygon fill="#FFFFFF"
                                             points="34.17,16.41 39.412,0 29.959,0 24.717,16.41 24.717,16.41 23.325,20.771 22.818,22.35     22.818,22.35 22.818,22.352 37.419,22.352 39.316,16.41   "
                                             class=" kxf_FFFFFF"></polygon>
                                </g>
                                <g>
                                    <path fill="#FFFFFF"
                                          d="M46.365,20.016v-6.647h2.29c0.518,0,0.912,0.032,1.184,0.096c0.38,0.088,0.706,0.246,0.974,0.476    c0.353,0.296,0.613,0.675,0.787,1.136c0.175,0.462,0.261,0.988,0.261,1.581c0,0.505-0.06,0.952-0.177,1.342    s-0.27,0.713-0.453,0.969c-0.185,0.255-0.387,0.456-0.605,0.603c-0.22,0.146-0.483,0.258-0.794,0.333    c-0.31,0.075-0.665,0.113-1.066,0.113H46.365z M47.245,19.231h1.419c0.438,0,0.782-0.041,1.032-0.123    c0.249-0.081,0.448-0.196,0.596-0.344c0.209-0.209,0.371-0.489,0.487-0.842c0.116-0.352,0.176-0.779,0.176-1.28    c0-0.695-0.115-1.229-0.343-1.604c-0.229-0.373-0.507-0.623-0.833-0.75c-0.235-0.091-0.614-0.137-1.138-0.137h-1.396V19.231z"
                                          class=" kxf_FFFFFF"></path>
                                    <path fill="#FFFFFF"
                                          d="M57.434,13.368h0.88v3.841c0,0.668-0.075,1.198-0.228,1.592c-0.15,0.393-0.424,0.712-0.818,0.959    c-0.395,0.246-0.912,0.369-1.553,0.369c-0.623,0-1.132-0.107-1.527-0.321c-0.397-0.215-0.68-0.525-0.848-0.932    c-0.171-0.407-0.254-0.963-0.254-1.667v-3.841h0.878v3.836c0,0.578,0.055,1.004,0.161,1.276c0.107,0.274,0.293,0.484,0.553,0.633    c0.263,0.148,0.583,0.223,0.96,0.223c0.646,0,1.108-0.146,1.383-0.44c0.275-0.294,0.413-0.856,0.413-1.691V13.368z"
                                          class=" kxf_FFFFFF"></path>
                                    <path fill="#FFFFFF"
                                          d="M59.51,16.779c0-1.104,0.296-1.968,0.889-2.593c0.593-0.624,1.358-0.936,2.295-0.936    c0.613,0,1.167,0.146,1.659,0.439c0.493,0.293,0.868,0.701,1.127,1.227c0.258,0.524,0.388,1.12,0.388,1.784    c0,0.674-0.136,1.277-0.408,1.81c-0.271,0.532-0.657,0.935-1.155,1.208c-0.499,0.273-1.037,0.41-1.614,0.41    c-0.626,0-1.186-0.151-1.678-0.452c-0.493-0.303-0.866-0.717-1.121-1.238C59.637,17.915,59.51,17.362,59.51,16.779z     M60.418,16.792c0,0.801,0.215,1.433,0.646,1.893c0.43,0.462,0.972,0.691,1.62,0.691c0.663,0,1.208-0.231,1.636-0.698    c0.428-0.465,0.642-1.126,0.642-1.981c0-0.541-0.092-1.013-0.274-1.417c-0.184-0.403-0.451-0.717-0.803-0.938    c-0.352-0.223-0.747-0.333-1.186-0.333c-0.622,0-1.158,0.214-1.608,0.642C60.641,15.077,60.418,15.792,60.418,16.792z"
                                          class=" kxf_FFFFFF"></path>
                                    <path fill="#FFFFFF"
                                          d="M67.001,20.016v-6.647h2.29c0.518,0,0.912,0.032,1.184,0.096c0.381,0.088,0.706,0.246,0.975,0.476    c0.352,0.296,0.613,0.675,0.787,1.136c0.174,0.462,0.26,0.988,0.26,1.581c0,0.505-0.059,0.952-0.176,1.342    s-0.27,0.713-0.454,0.969c-0.185,0.255-0.387,0.456-0.604,0.603c-0.22,0.146-0.484,0.258-0.793,0.333    c-0.311,0.075-0.666,0.113-1.068,0.113H67.001z M67.882,19.231H69.3c0.438,0,0.782-0.041,1.032-0.123    c0.25-0.081,0.448-0.196,0.597-0.344c0.208-0.209,0.371-0.489,0.486-0.842c0.116-0.352,0.176-0.779,0.176-1.28    c0-0.695-0.115-1.229-0.343-1.604c-0.229-0.373-0.507-0.623-0.832-0.75c-0.236-0.091-0.615-0.137-1.138-0.137h-1.396V19.231z"
                                          class=" kxf_FFFFFF"></path>
                                    <path fill="#FFFFFF"
                                          d="M78.071,13.368h0.879v3.841c0,0.668-0.076,1.198-0.229,1.592c-0.15,0.393-0.422,0.712-0.816,0.959    c-0.395,0.246-0.914,0.369-1.553,0.369c-0.625,0-1.133-0.107-1.529-0.321c-0.396-0.215-0.679-0.525-0.848-0.932    c-0.17-0.407-0.254-0.963-0.254-1.667v-3.841h0.879v3.836c0,0.578,0.054,1.004,0.162,1.276c0.105,0.274,0.291,0.484,0.553,0.633    s0.581,0.223,0.958,0.223c0.646,0,1.107-0.146,1.383-0.44s0.414-0.856,0.414-1.691V13.368z"
                                          class=" kxf_FFFFFF"></path>
                                    <path fill="#FFFFFF"
                                          d="M80.147,16.779c0-1.104,0.295-1.968,0.887-2.593c0.594-0.624,1.359-0.936,2.295-0.936    c0.613,0,1.168,0.146,1.66,0.439c0.494,0.293,0.869,0.701,1.127,1.227c0.26,0.524,0.389,1.12,0.389,1.784    c0,0.674-0.137,1.277-0.408,1.81c-0.273,0.532-0.658,0.935-1.156,1.208s-1.037,0.41-1.615,0.41c-0.625,0-1.186-0.151-1.678-0.452    c-0.492-0.303-0.865-0.717-1.119-1.238C80.274,17.915,80.147,17.362,80.147,16.779z M81.053,16.792    c0,0.801,0.215,1.433,0.646,1.893c0.43,0.462,0.971,0.691,1.621,0.691c0.662,0,1.207-0.231,1.635-0.698    c0.428-0.465,0.641-1.126,0.641-1.981c0-0.541-0.092-1.013-0.273-1.417c-0.184-0.403-0.451-0.717-0.803-0.938    c-0.352-0.223-0.748-0.333-1.186-0.333c-0.623,0-1.158,0.214-1.607,0.642S81.053,15.792,81.053,16.792z"
                                          class=" kxf_FFFFFF"></path>
                                    <path fill="#FFFFFF"
                                          d="M89.51,20.016V17.2l-2.563-3.832h1.07l1.311,2.004c0.242,0.375,0.467,0.75,0.676,1.125    c0.199-0.347,0.441-0.739,0.725-1.174l1.287-1.955h1.025L90.389,17.2v2.815H89.51z"
                                          class=" kxf_FFFFFF"></path>
                                    <path fill="#FFFFFF" d="M93.981,20.016v-6.647h0.879v6.647H93.981z"
                                          class=" kxf_FFFFFF"></path>
                                    <path fill="#FFFFFF"
                                          d="M96.403,20.016v-6.647h0.902l3.49,5.22v-5.22h0.844v6.647h-0.902l-3.492-5.224v5.224H96.403z"
                                          class=" kxf_FFFFFF"></path>
                                    <path fill="#FFFFFF" d="M103.245,20.016v-0.93h0.93v0.93H103.245z"
                                          class=" kxf_FFFFFF"></path>
                                    <path fill="#FFFFFF"
                                          d="M110.44,17.685l0.881,0.223c-0.186,0.723-0.518,1.273-0.996,1.653c-0.479,0.379-1.066,0.568-1.758,0.568    c-0.717,0-1.299-0.146-1.748-0.438c-0.447-0.292-0.789-0.714-1.023-1.268c-0.234-0.553-0.352-1.146-0.352-1.781    c0-0.692,0.133-1.297,0.396-1.812c0.266-0.516,0.641-0.907,1.129-1.174c0.488-0.269,1.025-0.402,1.611-0.402    c0.666,0,1.225,0.17,1.678,0.508c0.455,0.339,0.77,0.815,0.949,1.428l-0.867,0.205c-0.154-0.483-0.377-0.837-0.672-1.057    c-0.293-0.221-0.66-0.331-1.105-0.331c-0.512,0-0.938,0.123-1.279,0.367c-0.346,0.244-0.586,0.573-0.725,0.986    c-0.139,0.412-0.209,0.838-0.209,1.276c0,0.565,0.082,1.059,0.248,1.48c0.164,0.422,0.42,0.737,0.768,0.945    s0.725,0.313,1.129,0.313c0.492,0,0.91-0.142,1.252-0.426S110.319,18.244,110.44,17.685z"
                                          class=" kxf_FFFFFF"></path>
                                    <path fill="#FFFFFF"
                                          d="M112.135,16.779c0-1.104,0.297-1.968,0.891-2.593c0.592-0.624,1.357-0.936,2.293-0.936    c0.613,0,1.168,0.146,1.66,0.439c0.494,0.293,0.869,0.701,1.127,1.227c0.258,0.524,0.387,1.12,0.387,1.784    c0,0.674-0.135,1.277-0.406,1.81s-0.658,0.935-1.156,1.208c-0.5,0.273-1.037,0.41-1.615,0.41c-0.625,0-1.184-0.151-1.676-0.452    c-0.494-0.303-0.867-0.717-1.121-1.238C112.264,17.915,112.135,17.362,112.135,16.779z M113.045,16.792    c0,0.801,0.215,1.433,0.645,1.893c0.43,0.462,0.971,0.691,1.621,0.691c0.662,0,1.207-0.231,1.635-0.698    c0.428-0.465,0.641-1.126,0.641-1.981c0-0.541-0.09-1.013-0.273-1.417c-0.184-0.403-0.451-0.717-0.803-0.938    c-0.352-0.223-0.748-0.333-1.186-0.333c-0.621,0-1.158,0.214-1.607,0.642S113.045,15.792,113.045,16.792z"
                                          class=" kxf_FFFFFF"></path>
                                    <path fill="#FFFFFF"
                                          d="M119.6,20.016v-6.647h1.324l1.572,4.707c0.146,0.438,0.252,0.767,0.318,0.984    c0.076-0.242,0.193-0.597,0.354-1.065l1.592-4.626h1.184v6.647h-0.848v-5.563l-1.934,5.563h-0.791l-1.924-5.659v5.659H119.6z"
                                          class=" kxf_FFFFFF"></path>
                                </g>
                            </g> </svg>


